HIERARCHY
ROOT Hips
{
	OFFSET 60.517300 -34.741116 86.670494
	CHANNELS 6 Xposition Yposition Zposition Xrotation Yrotation Zrotation
	JOINT spine
	{
		OFFSET 0.000000 -0.393700 6.846367
		CHANNELS 3 Xrotation Yrotation Zrotation
		JOINT spine1
		{
			OFFSET 0.000000 0.000000 9.496208
			CHANNELS 3 Xrotation Yrotation Zrotation
			JOINT spine2
			{
				OFFSET 0.000000 -0.000004 9.099091
				CHANNELS 3 Xrotation Yrotation Zrotation
				JOINT Neck
				{
					OFFSET 0.000000 -1.113785 23.361214
					CHANNELS 3 Xrotation Yrotation Zrotation
					JOINT Head
					{
						OFFSET 0.000000 0.000000 7.058014
						CHANNELS 3 Xrotation Yrotation Zrotation
						End Site
						{
							OFFSET 0.000000 5.634186 17.084396
						}
					}
				}
				JOINT RightShoulder
				{
					OFFSET -3.831360 0.533489 9.826309
					CHANNELS 3 Xrotation Yrotation Zrotation
					JOINT RightArm
					{
						OFFSET 0.000000 -0.000004 12.888100
						CHANNELS 3 Xrotation Yrotation Zrotation
						JOINT RightArmRoll
						{
							OFFSET 0.000000 0.000000 6.506165
							CHANNELS 3 Xrotation Yrotation Zrotation
							JOINT RightForeArm
							{
								OFFSET 0.000000 -0.000004 18.950104
								CHANNELS 3 Xrotation Yrotation Zrotation
								JOINT RightForeArmRoll
								{
									OFFSET 0.000000 0.000000 7.300934
									CHANNELS 3 Xrotation Yrotation Zrotation
									JOINT RightHand
									{
										OFFSET 0.000000 -0.000004 14.651398
										CHANNELS 3 Xrotation Yrotation Zrotation
										End Site
										{
											OFFSET 0.000000 0.000000 0.100006
										}
									}
								}
							}
						}
					}
				}
				JOINT LeftShoulder
				{
					OFFSET 3.831364 0.533489 9.826309
					CHANNELS 3 Xrotation Yrotation Zrotation
					JOINT LeftArm
					{
						OFFSET 0.000000 -0.000004 12.888100
						CHANNELS 3 Xrotation Yrotation Zrotation
						JOINT LeftArmRoll
						{
							OFFSET 0.000000 0.000000 6.506165
							CHANNELS 3 Xrotation Yrotation Zrotation
							JOINT LeftForeArm
							{
								OFFSET 0.000000 -0.000004 18.950104
								CHANNELS 3 Xrotation Yrotation Zrotation
								JOINT LeftForeArmRoll
								{
									OFFSET 0.000000 0.000000 7.300934
									CHANNELS 3 Xrotation Yrotation Zrotation
									JOINT LeftHand
									{
										OFFSET 0.000000 -0.000004 14.651398
										CHANNELS 3 Xrotation Yrotation Zrotation
										End Site
										{
											OFFSET 0.000000 0.000000 0.100006
										}
									}
								}
							}
						}
					}
				}
			}
		}
	}
	JOINT RightUpLeg
	{
		OFFSET -6.068371 0.933475 -1.112778
		CHANNELS 3 Xrotation Yrotation Zrotation
		JOINT RightUpLegRoll
		{
			OFFSET 0.000000 0.000000 17.179596
			CHANNELS 3 Xrotation Yrotation Zrotation
			JOINT RightLeg
			{
				OFFSET 0.000000 0.000004 -21.274300
				CHANNELS 3 Xrotation Yrotation Zrotation
				JOINT RightLegRoll
				{
					OFFSET 0.000000 -0.000004 21.343903
					CHANNELS 3 Xrotation Yrotation Zrotation
					JOINT RightFoot
					{
						OFFSET 0.000000 -0.000004 17.765198
						CHANNELS 3 Xrotation Yrotation Zrotation
						JOINT RightToeBase
						{
							OFFSET 0.000000 -0.000004 14.850800
							CHANNELS 3 Xrotation Yrotation Zrotation
							End Site
							{
								OFFSET 0.006294 0.829006 7.192123
							}
						}
					}
				}
			}
		}
	}
	JOINT LeftUpLeg
	{
		OFFSET 6.068371 0.933475 -1.112778
		CHANNELS 3 Xrotation Yrotation Zrotation
		JOINT LeftUpLegRoll
		{
			OFFSET 0.000000 0.000000 17.179703
			CHANNELS 3 Xrotation Yrotation Zrotation
			JOINT LeftLeg
			{
				OFFSET 0.000000 -0.000004 21.274200
				CHANNELS 3 Xrotation Yrotation Zrotation
				JOINT LeftLegRoll
				{
					OFFSET 0.000000 -0.000004 21.541206
					CHANNELS 3 Xrotation Yrotation Zrotation
					JOINT LeftFoot
					{
						OFFSET 0.000000 -0.000004 17.567902
						CHANNELS 3 Xrotation Yrotation Zrotation
						JOINT LeftToeBase
						{
							OFFSET 0.000000 -0.000004 14.850800
							CHANNELS 3 Xrotation Yrotation Zrotation
							End Site
							{
								OFFSET -0.028214 0.829006 7.192123
							}
						}
					}
				}
			}
		}
	}
}
MOTION
Frames: 8
Frame Time: 0.041667
51.581497 -11.594215 86.566795 3.576659 -1.991387 -1.738382 -1.520979 -1.035295 1.134272 0.980975 -2.079617 2.249961 2.625956 -2.052514 2.274687 0.734069 18.070514 -2.802952 9.246549 -14.692104 -3.671396 -12.102589 -52.604812 -13.977105 120.756119 -30.715391 112.057176 -0.000008 -0.000008 -0.000010 7.008562 -25.137056 2.952164 -0.000008 0.000013 -3.011312 -5.000165 -7.999921 0.000111 -22.247460 69.596240 26.039934 112.698558 40.477583 -115.204254 0.000001 0.000000 -0.000001 1.079948 27.820004 -1.713986 0.000000 -0.000010 2.999900 -5.000148 8.000276 -0.000063 -20.815574 -177.127227 -2.442320 179.999991 -0.000005 -0.980004 155.206295 -3.079068 -1.276342 0.000002 -0.000001 0.586327 72.202572 7.081331 1.331924 25.458350 -7.348705 0.000181 -16.766658 -177.607117 3.862962 -0.000003 -0.000004 -1.207530 -23.393336 1.188777 0.954361 -0.000002 0.000002 -0.812740 74.747746 -6.762473 -2.068179 25.459346 7.350142 -0.000432 
51.578896 -11.599018 86.532692 3.648378 -1.991529 -1.718371 -1.521899 -1.035335 1.134984 0.978403 -2.080688 2.251375 2.623377 -2.053568 2.276122 0.732387 18.087217 -2.812185 9.189302 -14.700413 -3.689886 -12.139934 -52.635046 -14.024433 120.680345 -31.136022 112.281924 -0.000006 -0.000008 -0.000011 6.823462 -25.093625 2.899167 -0.000006 0.000016 -3.011311 -5.000164 -7.999920 0.000115 -22.352405 69.662800 26.155480 112.757018 40.674384 -115.543373 0.000003 0.000001 -0.000001 1.172024 27.734261 -1.716018 -0.000002 -0.000006 2.999649 -5.000145 8.000277 -0.000062 -20.892405 -177.131489 -2.456199 179.999991 -0.000005 -0.980004 155.176885 -3.077421 -1.277498 0.000003 -0.000002 0.586369 72.226177 7.080673 1.333425 25.458352 -7.348706 0.000181 -16.844254 -177.597554 3.878919 -0.000003 -0.000004 -1.207299 -23.420007 1.184701 0.954560 -0.000002 0.000002 -0.814037 74.767738 -6.762788 -2.065719 25.459346 7.350142 -0.000432 
51.591995 -11.628120 86.547295 3.719284 -1.991810 -1.698309 -1.522779 -1.035384 1.135747 0.975859 -2.081780 2.252922 2.620837 -2.054641 2.277680 0.729978 18.104424 -2.820534 9.133570 -14.708951 -3.707476 -12.176714 -52.664635 -14.071060 120.610936 -31.556973 112.510004 -0.000006 -0.000008 -0.000012 6.638669 -25.051220 2.846937 -0.000005 0.000015 -3.011311 -5.000161 -7.999919 0.000114 -22.456591 69.728520 26.270152 112.825798 40.871780 -115.899376 -0.000002 0.000000 -0.000001 1.271766 27.642404 -1.720037 -0.000004 -0.000005 2.999268 -5.000145 8.000279 -0.000062 -20.968713 -177.136694 -2.469726 179.999991 -0.000005 -0.980004 155.146982 -3.075773 -1.278685 0.000002 -0.000001 0.586431 72.250083 7.079950 1.335095 25.458349 -7.348706 0.000181 -16.921056 -177.587049 3.894858 -0.000003 -0.000004 -1.207120 -23.446877 1.180543 0.954735 -0.000002 0.000002 -0.815370 74.787935 -6.763052 -2.063240 25.459344 7.350142 -0.000432 
51.590397 -11.637718 86.533989 3.789628 -1.992168 -1.678219 -1.523641 -1.035434 1.136540 0.973336 -2.082891 2.254559 2.618317 -2.055734 2.279319 0.727056 18.121834 -2.828277 9.078902 -14.717533 -3.724465 -12.213116 -52.693748 -14.117230 120.547416 -31.977925 112.741937 -0.000006 -0.000007 -0.000012 6.454089 -25.009451 2.795312 -0.000005 0.000014 -3.011313 -5.000162 -7.999924 0.000110 -22.560412 69.793571 26.384375 112.903580 41.069313 -116.268794 0.000005 0.000000 -0.000000 1.376823 27.546522 -1.725304 -0.000001 -0.000009 2.998802 -5.000148 8.000279 -0.000062 -21.044644 -177.140956 -2.483620 179.999991 -0.000005 -0.978993 155.116765 -3.074118 -1.278889 0.000003 -0.000001 0.586507 72.274009 7.079269 1.336772 25.458347 -7.348704 0.000181 -16.997368 -177.576558 3.910992 -0.000003 -0.000004 -1.206960 -23.473842 1.176330 0.954895 -0.000002 0.000002 -0.816728 74.808057 -6.763395 -2.060676 25.459344 7.350141 -0.000432 
51.582600 -11.631819 86.528595 3.859632 -1.992554 -1.658099 -1.524470 -1.035484 1.137354 0.970824 -2.084003 2.256247 2.615797 -2.056828 2.281009 0.723840 18.139550 -2.835669 9.024845 -14.726274 -3.741103 -12.249353 -52.722671 -14.163178 120.488799 -32.398965 112.977039 -0.000002 -0.000007 -0.000010 6.269704 -24.968016 2.744176 -0.000007 0.000014 -3.011311 -5.000164 -7.999921 0.000111 -22.664284 69.858212 26.498605 112.988049 41.266804 -116.646941 0.000003 0.000000 -0.000001 1.484801 27.448331 -1.731080 -0.000003 -0.000006 2.998280 -5.000144 8.000276 -0.000063 -21.120265 -177.145191 -2.497505 179.999991 -0.000005 -0.978993 155.086371 -3.071553 -1.279680 0.000003 -0.000001 0.586592 72.298126 7.078527 1.338629 25.458350 -7.348705 0.000181 -17.073280 -177.566053 3.927233 -0.000003 -0.000005 -1.206820 -23.500815 1.172091 0.955044 -0.000003 0.000002 -0.818101 74.828383 -6.763689 -2.058093 25.459344 7.350142 -0.000432 
51.588196 -11.652515 86.524986 3.929562 -1.992918 -1.637981 -1.525310 -1.035533 1.138168 0.968316 -2.085123 2.257934 2.613297 -2.057930 2.282719 0.720553 18.157259 -2.842967 8.970934 -14.735001 -3.757656 -12.285593 -52.751586 -14.209141 120.435278 -32.819291 113.216867 -0.000004 -0.000007 -0.000012 6.085475 -24.926630 2.693407 -0.000004 0.000015 -3.011311 -5.000160 -7.999920 0.000110 -22.768678 69.922689 26.613371 113.077101 41.464231 -117.029295 -0.000000 0.000000 -0.000001 1.593374 27.349558 -1.736667 -0.000002 -0.000008 2.997751 -5.000147 8.000277 -0.000064 -21.195877 -177.150382 -2.511044 179.999991 -0.000005 -0.978993 155.055963 -3.069879 -1.280884 0.000003 -0.000001 0.586678 72.322264 7.077796 1.340387 25.458352 -7.348706 0.000181 -17.149104 -177.554633 3.943216 -0.000004 -0.000005 -1.206680 -23.527886 1.167834 0.955185 -0.000003 0.000002 -0.819476 74.848628 -6.764032 -2.055422 25.459346 7.350142 -0.000432 
51.590397 -11.673117 86.522881 3.999657 -1.993188 -1.617873 -1.526152 -1.035593 1.138971 0.965801 -2.086234 2.259611 2.610777 -2.059023 2.284398 0.717411 18.174768 -2.850436 8.916721 -14.743629 -3.774428 -12.321962 -52.780471 -14.255259 120.384611 -33.239887 113.458813 -0.000004 -0.000007 -0.000011 5.901350 -24.884987 2.642874 -0.000005 0.000014 -3.011311 -5.000164 -7.999921 0.000111 -22.874184 69.987377 26.729283 113.168475 41.661637 -117.411252 -0.000002 0.000000 -0.000000 1.700221 27.252035 -1.741397 -0.000000 -0.000008 2.997240 -5.000150 8.000277 -0.000062 -21.271601 -177.154644 -2.524949 179.999991 -0.000005 -0.977996 155.025637 -3.068220 -1.282086 0.000002 -0.000001 0.586761 72.346293 7.077083 1.342152 25.458350 -7.348706 0.000182 -17.225121 -177.544170 3.959430 -0.000003 -0.000005 -1.206529 -23.554853 1.163597 0.955326 -0.000003 0.000002 -0.820845 74.868873 -6.764354 -2.052847 25.459342 7.350142 -0.000432 
51.592094 -11.684015 86.522690 4.070158 -1.993334 -1.597789 -1.527011 -1.035632 1.139764 0.963272 -2.087337 2.261218 2.608246 -2.060105 2.286016 0.714633 18.192178 -2.858345 8.861741 -14.752181 -3.791663 -12.358709 -52.809715 -14.301849 120.336978 -33.659927 113.704181 -0.000003 -0.000007 -0.000010 5.717299 -24.842692 2.592461 -0.000002 0.000014 -3.011311 -5.000161 -7.999921 0.000113 -22.980909 70.052230 26.846477 113.261311 41.857906 -117.790574 0.000001 0.000000 -0.000000 1.803007 27.157575 -1.744644 -0.000002 -0.000008 2.996800 -5.000147 8.000275 -0.000062 -21.347625 -177.158906 -2.538855 179.999991 -0.000005 -0.977996 154.995557 -3.065662 -1.282855 0.000003 -0.000001 0.586833 72.370226 7.076387 1.343930 25.458345 -7.348706 0.000181 -17.301535 -177.533719 3.975503 -0.000005 -0.000004 -1.206360 -23.581727 1.159400 0.955473 -0.000002 0.000002 -0.822196 74.889090 -6.764633 -2.050368 25.459347 7.350142 -0.000432 
